<svg width="1920" height="1080" viewBox="0 0 1920 1080" fill="none" xmlns="http://www.w3.org/2000/svg">
  <defs>
    <linearGradient id="heroGradient" x1="0%" y1="0%" x2="100%" y2="100%">
      <stop offset="0%" style="stop-color:#667eea;stop-opacity:0.1" />
      <stop offset="50%" style="stop-color:#764ba2;stop-opacity:0.05" />
      <stop offset="100%" style="stop-color:#f093fb;stop-opacity:0.1" />
    </linearGradient>
    <pattern id="grid" width="40" height="40" patternUnits="userSpaceOnUse">
      <path d="M 40 0 L 0 0 0 40" fill="none" stroke="#e5e7eb" stroke-width="0.5" opacity="0.3"/>
    </pattern>
  </defs>
  
  <!-- Background -->
  <rect width="1920" height="1080" fill="url(#heroGradient)"/>
  
  <!-- Grid overlay -->
  <rect width="1920" height="1080" fill="url(#grid)"/>
  
  <!-- Floating geometric shapes -->
  <circle cx="300" cy="200" r="60" fill="#667eea" opacity="0.1">
    <animateTransform attributeName="transform" type="translate" values="0,0; 20,10; 0,0" dur="6s" repeatCount="indefinite"/>
  </circle>
  
  <rect x="1500" y="300" width="80" height="80" rx="8" fill="#764ba2" opacity="0.08">
    <animateTransform attributeName="transform" type="rotate" values="0 1540 340; 360 1540 340" dur="20s" repeatCount="indefinite"/>
  </rect>
  
  <polygon points="800,100 850,150 800,200 750,150" fill="#f093fb" opacity="0.1">
    <animateTransform attributeName="transform" type="translate" values="0,0; -10,15; 0,0" dur="8s" repeatCount="indefinite"/>
  </polygon>
  
  <circle cx="1200" cy="800" r="40" fill="#667eea" opacity="0.12">
    <animateTransform attributeName="transform" type="translate" values="0,0; 15,-20; 0,0" dur="10s" repeatCount="indefinite"/>
  </circle>
  
  <!-- Code-like elements -->
  <g opacity="0.05">
    <rect x="100" y="600" width="200" height="4" rx="2" fill="#374151"/>
    <rect x="100" y="620" width="150" height="4" rx="2" fill="#374151"/>
    <rect x="100" y="640" width="180" height="4" rx="2" fill="#374151"/>
    
    <rect x="1400" y="150" width="180" height="4" rx="2" fill="#374151"/>
    <rect x="1400" y="170" width="220" height="4" rx="2" fill="#374151"/>
    <rect x="1400" y="190" width="160" height="4" rx="2" fill="#374151"/>
  </g>
</svg>